HIERARCHY
ROOT root     
{
	OFFSET 0.0000 0.0000 0.0000
	CHANNELS 6 Xposition Yposition Zposition Zrotation Yrotation Xrotation
	JOINT pelvis   
	{
		OFFSET 0.0000 0.0000 0.0000
		CHANNELS 3 Zrotation Yrotation Xrotation
		JOINT thorax   
		{
			OFFSET 0.0000 23.0750 -5.0000
			CHANNELS 3 Zrotation Yrotation Xrotation
			JOINT rclavicle
			{
				OFFSET 0.0000 28.0009 0.0000
				CHANNELS 3 Zrotation Yrotation Xrotation
				JOINT rhumerus 
				{
					OFFSET -18.5725 5.5939 0.0000
					CHANNELS 3 Zrotation Yrotation Xrotation
					JOINT rradius  
					{
						OFFSET -24.8459 0.0000 0.0000
						CHANNELS 3 Zrotation Yrotation Xrotation
						JOINT rhand    
						{
							OFFSET -24.5477 0.0000 0.0000
							CHANNELS 3 Zrotation Yrotation Xrotation
							End Site
							{
								OFFSET -8.1826 0.0000 0.0000
							}
						}
					}
				}
			}
			JOINT lclavicle
			{
				OFFSET 0.0000 28.0009 0.0000
				CHANNELS 3 Zrotation Yrotation Xrotation
				JOINT lhumerus 
				{
					OFFSET 18.5725 5.5939 0.0000
					CHANNELS 3 Zrotation Yrotation Xrotation
					JOINT lradius  
					{
						OFFSET 24.8459 0.0000 0.0000
						CHANNELS 3 Zrotation Yrotation Xrotation
						JOINT lhand    
						{
							OFFSET 24.5477 0.0000 0.0000
							CHANNELS 3 Zrotation Yrotation Xrotation
							End Site
							{
								OFFSET 8.1826 0.0000 0.0000
							}
						}
					}
				}
			}
			JOINT head     
			{
				OFFSET 0.0000 35.2030 0.0000
				CHANNELS 3 Zrotation Yrotation Xrotation
				End Site
				{
					OFFSET 0.0000 11.7343 0.0000
				}
			}
		}
		JOINT rfemur   
		{
			OFFSET -8.2817 0.0000 0.0000
			CHANNELS 3 Zrotation Yrotation Xrotation
			JOINT rtibia   
			{
				OFFSET 0.0000 -43.3627 0.0000
				CHANNELS 3 Zrotation Yrotation Xrotation
				JOINT rfoot    
				{
					OFFSET 0.0000 -38.2947 0.0000
					CHANNELS 3 Zrotation Yrotation Xrotation
					JOINT rtoes    
					{
						OFFSET 0.0000 0.0000 16.6054
						CHANNELS 3 Zrotation Yrotation Xrotation
						End Site
						{
							OFFSET 0.0000 0.0000 5.5351
						}
					}
				}
			}
		}
		JOINT lfemur   
		{
			OFFSET 8.2817 0.0000 0.0000
			CHANNELS 3 Zrotation Yrotation Xrotation
			JOINT ltibia   
			{
				OFFSET 0.0000 -43.3627 0.0000
				CHANNELS 3 Zrotation Yrotation Xrotation
				JOINT lfoot    
				{
					OFFSET 0.0000 -38.2947 0.0000
					CHANNELS 3 Zrotation Yrotation Xrotation
					JOINT ltoes    
					{
						OFFSET 0.0000 0.0000 16.6054
						CHANNELS 3 Zrotation Yrotation Xrotation
						End Site
						{
							OFFSET 0.0000 0.0000 5.5351
						}
					}
				}
			}
		}
	}
}
MOTION
Frames: 23
Frame Time: .0333333
-24.138 83.009 9.6595 168.128 87.2578 -175.548 0 -0 0 5.28648 -13.5976 -11.263 26.6114 -12.6724 5.37937e-05 55.0941 -8.58145 -28.8022 -0 64.8764 -0 -8.71287 4.15075 -0.316307 -22.4574 16.1264 0.000100229 -29.0413 -1.83977 11.0669 -180 -71.4088 180 2.26221 -1.65157 -0.0325997 -8.85793 15.4245 -4.63185 1.31776 -8.69146 -41.4679 -0 -0 25.7562 3.07387e-05 7.09943 14.0143 1.72754 1.43365e-05 -49.7786 -1.45211 -1.2041 5.7213 -0 -0 24.2082 -4.81362e-06 -4.28027 12.6313 -0.9377 -3.92075e-06 -71.5563 
-23.121 82.629 9.7653 171.034 87.0885 -172.407 0 -0 0 5.82787 -13.4139 -11.5856 26.6191 -12.6585 0.00012367 54.6512 -8.56794 -28.6364 -7.26024e-07 63.8963 -1.16423e-06 -9.18555 3.93703 -0.316402 -22.6892 16.2238 0.000122174 -28.7788 -2.24771 10.4568 -180 -70.5452 180 2.22863 -1.92727 -0.0374999 -10.121 15.7092 -5.22785 1.59738 -8.99409 -42.734 -0 -0 29.1896 8.39601e-06 7.15026 12.0975 1.50598 -1.64822e-05 -47.1 -1.12591 -1.37732 5.62344 -0 -0 25.2052 -8.92798e-06 -4.44623 12.5688 -0.969401 -6.58455e-06 -73.0882 
-22.112 82.278 9.871 174.796 86.8889 -168.485 0 -0 0 6.41799 -13.2592 -11.7628 26.6123 -12.6191 -0.000114471 54.2051 -8.40709 -28.4091 -7.98753e-07 62.8695 -4.88231e-07 -9.58642 3.74067 -0.313797 -22.9334 16.3136 9.64019e-05 -28.6806 -2.61863 9.7726 -180 -69.8417 180 2.21824 -2.17673 -0.0421016 -11.3926 16.0393 -5.90338 1.95351 -9.33694 -43.7665 -0 -0 32.4844 4.23984e-06 7.27242 10.1823 1.29225 -7.32137e-06 -44.986 -0.743701 -1.56025 5.52642 -0 -0 26.2834 -1.03338e-05 -4.59263 12.6191 -1.00539 1.8455e-06 -74.6554 
-21.111 81.964 9.9832 179.272 86.6047 -163.927 0 -0 0 7.07024 -13.1433 -11.8006 26.5877 -12.5439 -0.000114669 53.7809 -8.11466 -28.151 -7.75646e-07 61.8221 -4.64424e-07 -9.90459 3.56593 -0.309101 -23.1975 16.3921 5.19496e-05 -28.7278 -2.95097 9.03648 -180 -69.2994 180 2.23088 -2.3964 -0.0466998 -12.6557 16.4072 -6.64974 2.37168 -9.67194 -44.4995 -0 -0 35.4345 -4.34904e-06 7.38855 8.36817 1.0812 9.74785e-06 -43.6232 -0.276997 -1.73198 5.41313 -0 -0 27.4542 -3.17255e-06 -4.76319 12.8193 -1.0592 9.82382e-06 -76.1073 
-20.125 81.695 10.104 -175.994 86.2327 -159.176 0 -0 0 7.77707 -13.0722 -11.716 26.5455 -12.4315 -8.93433e-06 53.4062 -7.70842 -27.8879 -4.42386e-07 60.7791 -7.54333e-07 -10.1359 3.41751 -0.303203 -23.4826 16.4562 -0.000113511 -28.896 -3.24554 8.27318 -180 -68.9238 180 2.2685 -2.58708 -0.0511995 -13.8898 16.8063 -7.44989 2.83807 -9.98432 -44.9182 -0 -0 37.9261 -3.07386e-06 7.44993 6.70337 0.874487 -7.15281e-07 -43.0511 0.280095 -1.88336 5.26259 -0 -0 28.725 -1.7707e-05 -4.98415 13.2025 -1.141 -5.29207e-06 -77.2793 
-19.154 81.473 10.23 -171.76 85.7839 -154.97 0 -0 0 8.49742 -13.0466 -11.5377 26.4925 -12.2772 -0.000172511 53.1018 -7.23355 -27.6437 -0 59.7794 -0 -10.2896 3.29013 -0.2963 -23.7761 16.4983 -5.14996e-05 -29.1613 -3.50022 7.51026 -180 -68.7151 180 2.33197 -2.75102 -0.0560032 -15.0664 17.2267 -8.27644 3.32398 -10.2834 -45.049 -0 -0 39.9206 3.69324e-06 7.42795 5.20304 0.67739 6.78038e-07 -43.1913 0.89931 -2.02354 5.057 -0 -0 30.0877 3.29825e-06 -5.25223 13.7871 -1.25499 -8.05796e-06 -77.9799 
-18.203 81.3 10.358 -168.351 85.2228 -151.631 0 -0 0 9.2047 -13.0672 -11.2904 26.4185 -12.0921 8.57092e-05 52.8919 -6.70418 -27.4247 -0 58.841 -0 -10.3775 3.18534 -0.289304 -24.074 16.5168 3.38792e-05 -29.4922 -3.72156 6.77193 -180 -68.6718 180 2.42323 -2.89287 -0.0612 -16.1642 17.6586 -9.10117 3.81104 -10.5731 -44.9242 -0 -0 41.4231 1.73438e-06 7.29564 3.86624 0.494597 2.75226e-06 -43.8522 1.56634 -2.14805 4.78172 -0 -0 31.5367 -1.19347e-05 -5.56156 14.5705 -1.40319 6.73111e-07 -78.0489 
-17.272 81.173 10.481 -166.148 84.5946 -149.52 0 -0 0 9.83655 -13.1239 -11.0062 26.3382 -11.8805 1.21388e-05 52.7879 -6.16542 -27.2328 -0 58.0037 -0 -10.4233 3.0931 -0.282194 -24.3556 16.509 4.65432e-05 -29.8616 -3.90903 6.0821 -180 -68.7925 180 2.54161 -3.01681 -0.0669002 -17.1558 18.0937 -9.88829 4.25675 -10.8723 -44.5987 -0 -0 42.484 -1.96424e-06 7.04678 2.68077 0.331303 -3.26368e-06 -44.7923 2.22575 -2.27361 4.42849 -0 -0 33.0511 4.0963e-07 -5.8654 15.5249 -1.57498 4.62721e-07 -77.3225 
-16.362 81.091 10.594 -165.063 83.9287 -148.528 0 -0 0 10.3577 -13.2023 -10.7145 26.2516 -11.6478 8.95045e-05 52.7904 -5.64598 -27.0624 -5.35603e-07 57.2928 -9.80487e-07 -10.4519 3.00556 -0.275 -24.6149 16.4746 1.9932e-05 -30.2399 -4.06507 5.45859 -180 -69.083 180 2.68449 -3.12592 -0.0733007 -18.0284 18.5272 -10.6065 4.63483 -11.1827 -44.1248 -0 -0 43.1683 -7.59165e-07 6.67585 1.636 0.191503 1.22384e-07 -45.7564 2.84558 -2.39807 3.98665 -0 -0 34.617 -3.91465e-05 -6.11442 16.5954 -1.75242 -3.47671e-05 -75.6903 
-15.478 81.048 10.688 -165.026 83.2308 -148.575 0 -0 0 10.7266 -13.284 -10.4426 26.1612 -11.4233 5.66759e-06 52.901 -5.13911 -26.8952 -0 56.7049 -0 -10.4801 2.92195 -0.268004 -24.8431 16.4142 8.2443e-05 -30.6016 -4.18674 4.91265 -180 -69.5272 180 2.84723 -3.22325 -0.0800986 -18.7729 18.9557 -11.2281 4.91373 -11.5104 -43.5606 -0 -0 43.5592 7.70657e-08 6.1951 0.719796 0.0780994 -6.77809e-08 -46.5207 3.37966 -2.52507 3.44858 -0 -0 36.2163 1.75431e-05 -6.23625 17.7011 -1.90297 1.48047e-05 -73.1455 
-14.618 81.046 10.774 -165.409 82.496 -149.017 0 -0 0 11.0094 -13.3428 -10.2126 26.0587 -11.1699 -1.89515e-05 53.0912 -4.71674 -26.7156 -0 56.2886 -0 -10.545 2.82558 -0.260798 -25.0618 16.3464 0.000103079 -30.9253 -4.2974 4.45072 -180 -70.1408 180 3.02037 -3.30724 -0.0871996 -19.413 19.381 -11.7371 5.13687 -11.8101 -42.9324 -0 -0 43.7003 -1.95679e-08 5.5859 -0.0582006 -0.00570001 4.43595e-08 -46.9479 3.89281 -2.60005 2.79115 -0 -0 37.872 -3.01817e-05 -6.21015 18.7469 -2.00287 1.45675e-05 -69.5948 
-13.788 81.078 10.837 -166.441 81.7776 -150.064 0 -0 0 11.1267 -13.3622 -10.0438 25.9546 -10.9384 -4.51122e-05 53.3551 -4.32217 -26.5007 -0 56.0053 -0 -10.6443 2.72491 -0.2539 -25.2535 16.266 -0.000171415 -31.1981 -4.37319 4.07243 -180 -70.9026 180 3.19433 -3.37769 -0.094197 -19.9376 19.8017 -12.1166 5.24772 -12.1112 -42.3043 -0 -0 43.6976 -1.18212e-07 4.90897 -0.718105 -0.061699 2.03354e-07 -46.9807 4.28486 -2.65519 2.02095 -0 -0 39.5402 -1.81524e-05 -5.92126 19.6508 -1.99753 -3.06733e-05 -65.3432 
-12.987 81.144 10.88 -167.789 81.082 -151.371 0 -0 0 11.116 -13.3183 -9.9432 25.8457 -10.7192 -3.43549e-05 53.6633 -3.96998 -26.2277 -0 55.8595 -0 -10.7895 2.61776 -0.2473 -25.4297 16.1816 9.0581e-05 -31.4128 -4.42019 3.77094 -180 -71.8128 180 3.35752 -3.4307 -0.100601 -20.3686 20.2218 -12.3654 5.27471 -12.3924 -41.701 -0 -0 43.6016 -1.34675e-06 4.18502 -1.25783 -0.0919998 7.23543e-07 -46.6601 4.58133 -2.66267 1.13127 -0 -0 41.2229 -2.48403e-05 -5.33306 20.3376 -1.85821 5.56136e-06 -60.6137 
-12.217 81.243 10.904 -169.329 80.4132 -152.819 0 -0 0 10.987 -13.1986 -9.90467 25.7297 -10.5315 9.48773e-06 53.9944 -3.61543 -25.8781 -0 55.8172 -0 -10.9723 2.51355 -0.241407 -25.5979 16.0967 -4.25424e-05 -31.5707 -4.42597 3.53007 -180 -72.8576 180 3.49875 -3.46348 -0.105798 -20.7232 20.6448 -12.4917 5.22743 -12.6535 -41.1388 -0 -0 43.4623 -1.56515e-06 3.45733 -1.68473 -0.101801 6.45265e-08 -46.0974 4.77395 -2.61793 0.137297 -0 -0 42.8955 -1.25701e-05 -4.40917 20.7643 -1.56584 1.69233e-05 -55.8157 
-11.479 81.374 10.915 -170.827 79.7689 -154.159 0 -0 0 10.7941 -12.9933 -9.9444 25.6097 -10.3292 4.1234e-05 54.31 -3.3179 -25.4484 -0 55.8957 -0 -11.1972 2.40721 -0.236004 -25.7689 16.0334 -0.000141331 -31.6791 -4.41825 3.34673 -180 -74.0465 180 3.61046 -3.46992 -0.109398 -21.0242 21.0773 -12.5024 5.15008 -12.8776 -40.6311 -0 -0 43.285 -1.08029e-06 2.7417 -1.99424 -0.0955005 -4.12988e-08 -45.4344 4.90309 -2.50537 -0.980996 -0 -0 44.5669 1.32451e-06 -3.15975 20.8815 -1.12719 3.79665e-06 -51.0463 
-10.768 81.536 10.91 -172.304 79.1698 -155.439 0 -0 0 10.5221 -12.6984 -10.02 25.4853 -10.1493 5.02666e-05 54.5997 -2.99139 -24.9227 -0 56.0388 -0 -11.4342 2.3173 -0.232006 -25.9398 15.9771 6.48383e-05 -31.7486 -4.36873 3.18944 -180 -75.3597 180 3.68713 -3.44771 -0.111002 -21.2834 21.5191 -12.4234 5.03933 -13.0879 -40.1648 -0 -0 43.0968 -8.8936e-07 2.09375 -2.2034 -0.0805006 -9.27848e-08 -44.8252 4.94237 -2.34029 -2.16979 -0 -0 46.1917 8.52299e-06 -1.59326 20.7078 -0.563499 -5.24165e-06 -46.7896 
-10.08 81.728 10.893 -173.642 78.6226 -156.547 0 -0 0 10.2061 -12.3197 -10.1188 25.3549 -9.98374 6.97715e-05 54.842 -2.62372 -24.2974 -5.11614e-07 56.2203 -9.57753e-07 -11.6672 2.25355 -0.230303 -26.119 15.9354 -8.40247e-05 -31.7921 -4.28675 3.04017 -180 -76.7918 180 3.72936 -3.39347 -0.110501 -21.5142 21.9738 -12.2743 4.92495 -13.2835 -39.722 -0 -0 42.8804 -2.73796e-07 1.52878 -2.31463 -0.0617989 -2.32873e-07 -44.4042 4.92012 -2.12287 -3.41786 -0 -0 47.7585 1.2678e-06 0.230606 20.2411 0.0797997 -1.21249e-07 -43.0712 
-9.4132 81.948 10.868 -174.799 78.1183 -157.455 0 -0 0 9.86512 -11.8667 -10.2251 25.2196 -9.81904 5.26838e-05 55.0221 -2.21124 -23.5787 -0 56.4271 -0 -11.8778 2.22167 -0.231088 -26.3071 15.9106 -7.34298e-05 -31.8195 -4.17981 2.88051 -180 -78.3402 180 3.74401 -3.30454 -0.108002 -21.724 22.4429 -12.0773 4.82631 -13.4736 -39.2854 -0 -0 42.6132 5.69503e-07 1.0586 -2.33289 -0.0430995 8.27466e-08 -44.2671 4.85382 -1.8602 -4.7071 -0 -0 49.2521 -1.82704e-05 2.23616 19.5002 0.746792 -8.05693e-06 -39.9042 
-8.76 82.194 10.837 -175.752 77.6551 -158.164 0 -0 0 9.50932 -11.3492 -10.3081 25.0799 -9.65823 -1.54086e-05 55.1321 -1.73175 -22.7667 -5.20668e-07 56.6326 -9.66321e-07 -12.0486 2.23146 -0.235494 -26.5047 15.8982 5.6197e-05 -31.8425 -4.05096 2.68974 -180 -79.9977 180 3.74311 -3.17931 -0.103901 -21.916 22.9229 -11.8545 4.75317 -13.6672 -38.8201 -0 -0 42.2679 5.40847e-07 0.687507 -2.26472 -0.0271997 4.44615e-10 -44.4614 4.75854 -1.56323 -6.0046 -0 -0 50.6513 -1.93034e-05 4.33619 18.5234 1.38004 3.91353e-06 -37.2248 
-8.1149 82.463 10.802 -176.499 77.2306 -158.69 0 -0 0 9.14516 -10.7857 -10.3477 24.9387 -9.48674 1.17678e-05 55.1621 -1.19393 -21.871 -0 56.8387 -0 -12.1677 2.28193 -0.243213 -26.7104 15.8991 0.00013791 -31.8666 -3.91554 2.45488 -180 -81.7584 180 3.74517 -3.01765 -0.0986977 -22.0883 23.4114 -11.6243 4.71083 -13.8738 -38.2979 -0 -0 41.8194 6.75566e-08 0.408198 -2.1154 -0.0151001 -8.46075e-08 -44.9855 4.64765 -1.24413 -7.28536 -0 -0 51.9385 2.2867e-05 6.43865 17.359 1.92847 1.08651e-05 -34.9387 
-7.473 82.752 10.763 -177.063 76.8272 -159.072 0 -0 0 8.77331 -10.1878 -10.329 24.7978 -9.30331 -1.98331e-06 55.1151 -0.59512 -20.8979 -0 57.0327 -0 -12.2271 2.37342 -0.254301 -26.9226 15.9108 -7.375e-05 -31.8933 -3.78282 2.16573 -180 -83.6033 180 3.77218 -2.82093 -0.0928996 -22.2331 23.9046 -11.3988 4.69852 -14.1038 -37.6973 -0 -0 41.246 9.18925e-08 0.206396 -1.8896 -0.00680001 -4.74409e-10 -45.7931 4.5302 -0.917708 -8.52935 -0 -0 53.0981 -3.53723e-05 8.45675 16.0647 2.356 2.15982e-06 -32.9577 
-6.8306 83.057 10.724 -177.471 76.4466 -159.344 0 -0 0 8.39498 -9.57166 -10.2459 24.6554 -9.10969 2.23288e-06 54.9916 0.063952 -19.8546 -0 57.2174 -0 -12.2256 2.50346 -0.268192 -27.1372 15.9252 0.000132477 -31.9244 -3.65497 1.81533 -180 -85.5204 180 3.84846 -2.59265 -0.0871033 -22.3429 24.3966 -11.1854 4.71278 -14.3598 -37.0042 -0 -0 40.5361 1.02504e-08 0.0596997 -1.59048 -0.00169998 -4.8329e-09 -46.8014 4.41384 -0.5978 -9.72469 -0 -0 54.1199 5.52116e-05 10.3149 14.7045 2.64502 1.02161e-05 -31.2147 
-6.1847 83.373 10.681 -177.763 76.0733 -159.55 0 -0 0 8.00383 -8.94733 -10.0976 24.5132 -8.90216 -4.53341e-05 54.7945 0.767614 -18.7471 -5.38035e-07 57.397 -9.82804e-07 -12.1681 2.66293 -0.283911 -27.3514 15.9419 7.54098e-05 -31.9549 -3.53974 1.40452 -180 -87.5068 180 3.9979 -2.33846 -0.0815993 -22.4108 24.8828 -10.9873 4.74278 -14.6445 -36.2119 -0 -0 39.6872 2.22067e-08 -0.0519999 -1.22376 0.00109999 3.74027e-09 -47.9008 4.29812 -0.298401 -10.8618 -0 -0 54.9946 -7.08129e-05 11.9546 13.339 2.79664 -1.9767e-05 -29.6615 
